<svg width="60" height="60" viewBox="0 0 60 60" fill="none" xmlns="http://www.w3.org/2000/svg">
<path d="M14.0061 28.7305C14.1637 28.8451 14.2782 28.931 14.3499 28.9883C14.4358 29.0312 14.5002 29.0671 14.5432 29.0957C14.6005 29.1243 14.6506 29.1602 14.6936 29.2031C14.7509 29.2461 14.8368 29.3105 14.9514 29.3965C14.8798 29.554 14.844 29.6758 14.844 29.7617C14.844 29.8477 14.8512 29.9336 14.8655 30.0195C14.8798 30.0911 14.8941 30.1699 14.9084 30.2559C14.9371 30.3418 14.9443 30.4564 14.9299 30.5996C14.1422 31.1009 13.4403 31.502 12.8245 31.8027C12.2229 32.0892 11.6357 32.3398 11.0627 32.5547C10.5042 32.7695 9.91691 32.9772 9.30103 33.1777C8.69946 33.3639 7.99764 33.6146 7.19556 33.9297C7.52498 34.1302 7.94751 34.3092 8.46313 34.4668C8.99308 34.61 9.51587 34.7819 10.0315 34.9824C10.5614 35.1686 11.0413 35.4049 11.4709 35.6914C11.9006 35.9779 12.1871 36.3503 12.3303 36.8086C12.5308 36.8229 12.7027 36.9375 12.8459 37.1523C13.0035 37.3672 13.068 37.6178 13.0393 37.9043C12.8961 37.9902 12.76 38.0905 12.6311 38.2051C12.5165 38.3053 12.3661 38.3841 12.1799 38.4414C12.0224 38.4701 11.8147 38.4557 11.5569 38.3984C11.3134 38.3411 11.0413 38.2624 10.7405 38.1621C10.454 38.0618 10.1461 37.9544 9.81665 37.8398C9.50155 37.7253 9.20076 37.6322 8.91431 37.5605C8.62785 37.4889 8.31274 37.4245 7.96899 37.3672C7.63957 37.3099 7.33162 37.224 7.04517 37.1094C6.91626 37.0521 6.80168 36.9876 6.70142 36.916C6.61548 36.8301 6.50806 36.7728 6.37915 36.7441C6.12134 36.7012 5.84204 36.6224 5.54126 36.5078C5.2548 36.3789 4.96118 36.2428 4.6604 36.0996C4.35962 35.9564 4.05884 35.8132 3.75806 35.6699C3.4716 35.5267 3.19946 35.3978 2.94165 35.2832C2.95597 35.1973 2.86287 35.0898 2.66235 34.9609C2.46183 34.832 2.24699 34.7604 2.01782 34.7461C2.01782 34.5742 1.94621 34.4238 1.80298 34.2949C1.67407 34.1517 1.57381 33.9941 1.5022 33.8223C1.34465 33.4212 1.40194 33.0417 1.67407 32.6836C1.94621 32.3255 2.35441 32.1107 2.89868 32.0391C3.07056 32.0964 3.19946 32.125 3.2854 32.125C3.38566 32.1107 3.51457 32.1393 3.67212 32.2109C3.92993 32.0391 4.23787 31.8743 4.59595 31.7168C4.96834 31.5449 5.32642 31.4948 5.67017 31.5664C5.71313 31.4518 5.79191 31.3945 5.90649 31.3945C6.0354 31.3945 6.11418 31.3301 6.14282 31.2012C6.73006 31.1009 7.30298 30.9434 7.86157 30.7285C8.42017 30.5137 8.96444 30.2845 9.49438 30.041C10.0243 29.7832 10.5328 29.5326 11.0198 29.2891C11.5211 29.0312 12.0009 28.8021 12.4592 28.6016C12.6597 28.6589 12.8459 28.6589 13.0178 28.6016C13.1897 28.5299 13.3687 28.5013 13.5549 28.5156C13.512 28.5586 13.5048 28.5872 13.5334 28.6016C13.5621 28.6159 13.6051 28.6302 13.6624 28.6445C13.7196 28.6445 13.7769 28.6517 13.8342 28.666C13.9058 28.666 13.9631 28.6875 14.0061 28.7305ZM17.0999 39.3008C16.9566 39.3008 16.7346 39.2793 16.4338 39.2363C16.2047 38.9928 15.997 38.6634 15.8108 38.248C15.6389 37.8184 15.5028 37.3672 15.4026 36.8945C15.3167 36.4076 15.2737 35.9277 15.2737 35.4551C15.288 34.9681 15.3739 34.5384 15.5315 34.166C15.5315 34.1517 15.5959 33.9798 15.7249 33.6504C15.8681 33.321 16.0471 32.9056 16.262 32.4043C16.4768 31.8887 16.7203 31.3229 16.9924 30.707C17.2646 30.0768 17.5367 29.4609 17.8088 28.8594C18.081 28.2578 18.3388 27.7135 18.5823 27.2266C18.8401 26.7253 19.0621 26.3385 19.2483 26.0664C19.3772 25.8659 19.4918 25.6725 19.592 25.4863C19.7066 25.3001 19.814 25.1283 19.9143 24.9707C20.0719 24.7129 20.2151 24.4766 20.344 24.2617C20.4872 24.0326 20.6376 23.832 20.7952 23.6602C20.967 23.474 21.1532 23.3164 21.3538 23.1875C21.5543 23.0443 21.7978 22.9225 22.0842 22.8223C22.2561 22.8939 22.4065 22.9727 22.5354 23.0586C22.6643 23.1302 22.7789 23.2233 22.8792 23.3379L22.9436 23.6387C22.9722 23.7389 23.0152 23.8105 23.0725 23.8535C23.1441 23.8822 23.2014 23.8965 23.2444 23.8965C23.4306 23.9395 23.5881 23.9896 23.717 24.0469C23.8603 24.0898 24.0107 24.1185 24.1682 24.1328C24.2255 24.2188 24.2756 24.3047 24.3186 24.3906C24.3759 24.4766 24.4332 24.5553 24.4905 24.627C24.7769 25.0423 25.0133 25.4434 25.1995 25.8301C25.3857 26.2168 25.3857 26.6393 25.1995 27.0977L25.2209 27.334C25.2926 27.4342 25.3284 27.5273 25.3284 27.6133C25.3284 27.6992 25.314 27.821 25.2854 27.9785C25.2711 28.0931 25.2568 28.222 25.2424 28.3652C25.2424 28.4941 25.2639 28.6374 25.3069 28.7949L25.4573 28.9668C25.6864 29.0814 25.9084 29.1387 26.1233 29.1387C26.4097 29.1387 26.6676 29.0742 26.8967 28.9453C27.1259 28.8164 27.3407 28.6875 27.5413 28.5586C27.6988 28.444 27.842 28.3509 27.9709 28.2793C28.1142 28.2077 28.2502 28.1576 28.3792 28.1289C28.6799 27.8424 28.9521 27.5918 29.1956 27.377C29.4534 27.1478 29.7183 26.9186 29.9905 26.6895C30.5061 26.2741 31.0074 25.8301 31.4944 25.3574C31.9814 24.8704 32.3681 24.2689 32.6545 23.5527C32.8121 23.4525 32.9911 23.4023 33.1917 23.4023C33.3922 23.4023 33.5927 23.4453 33.7932 23.5312C33.9937 23.6029 34.1943 23.6888 34.3948 23.7891C34.4377 23.8177 34.4736 23.8392 34.5022 23.8535C34.5452 23.8678 34.5881 23.8893 34.6311 23.918C34.6311 24.0755 34.6956 24.2188 34.8245 24.3477C34.8961 24.4049 34.9462 24.4408 34.9749 24.4551C35.0035 24.4694 35.0321 24.4837 35.0608 24.498C35.1754 24.5697 35.2685 24.6341 35.3401 24.6914C35.426 24.7487 35.4905 24.8275 35.5334 24.9277C35.6624 25.3145 35.8772 25.6152 36.178 25.8301C36.1493 25.9876 36.1565 26.1452 36.1995 26.3027C36.2424 26.446 36.2926 26.5892 36.3499 26.7324C36.3785 26.7897 36.4 26.847 36.4143 26.9043C36.4286 26.9473 36.4501 27.0046 36.4788 27.0762L36.0061 27.0332L36.0706 27.5059C36.1135 27.7493 36.092 28.0215 36.0061 28.3223C35.9345 28.623 35.8486 28.8594 35.7483 29.0312C35.7769 29.4609 35.7913 29.8047 35.7913 30.0625C35.7913 30.306 35.7769 30.5352 35.7483 30.75C35.7196 30.9648 35.6695 31.1725 35.5979 31.373C35.5406 31.5592 35.4618 31.7598 35.3616 31.9746C35.4189 33.0632 35.29 34.0586 34.9749 34.9609C34.6741 35.8633 34.3446 36.7083 33.9866 37.4961C33.9436 37.5964 33.9006 37.6895 33.8577 37.7754C33.8147 37.8613 33.7789 37.9473 33.7502 38.0332C33.5927 38.0762 33.4495 38.1263 33.3206 38.1836C33.1917 38.2409 33.0699 38.3053 32.9553 38.377C32.7978 38.4772 32.6402 38.5632 32.4827 38.6348C32.3251 38.6921 32.1604 38.7207 31.9885 38.7207C31.301 38.2194 30.943 37.3529 30.9143 36.1211C30.9 34.8893 31.165 33.321 31.7092 31.416C31.8095 31.3444 31.8525 31.237 31.8381 31.0938V30.8574L31.6233 30.8359C31.5517 30.8359 31.4872 30.8431 31.4299 30.8574C31.3726 30.8717 31.3297 30.9362 31.301 31.0508C30.8427 31.3802 30.3414 31.724 29.7971 32.082C29.2672 32.4258 28.7157 32.748 28.1428 33.0488C27.5699 33.3353 26.9827 33.5788 26.3811 33.7793C25.7939 33.9655 25.2209 34.0586 24.6624 34.0586C23.2301 34.0586 22.1487 33.3281 21.4182 31.8672L21.2249 31.4805L21.01 31.8242C20.967 31.8958 20.8883 32.0391 20.7737 32.2539C20.6734 32.4544 20.566 32.6908 20.4514 32.9629C20.3512 33.235 20.2581 33.5143 20.1721 33.8008C20.1005 34.0872 20.079 34.3379 20.1077 34.5527C19.9358 34.7103 19.7639 34.8893 19.592 35.0898C19.4345 35.2904 19.3199 35.5195 19.2483 35.7773C19.2196 35.849 19.2125 35.9206 19.2268 35.9922C19.2411 36.0495 19.2626 36.1139 19.2913 36.1855C19.2769 36.2858 19.2483 36.3574 19.2053 36.4004C19.1624 36.4434 19.1122 36.4863 19.0549 36.5293C18.9833 36.6009 18.9117 36.6797 18.8401 36.7656C18.7685 36.8372 18.704 36.9232 18.6467 37.0234C18.6181 37.1094 18.5966 37.2025 18.5823 37.3027C18.568 37.3887 18.5536 37.4674 18.5393 37.5391C18.5393 37.6966 18.5178 37.804 18.4749 37.8613C18.3316 38.1621 18.2027 38.4128 18.0881 38.6133C17.9879 38.7995 17.8876 38.9427 17.7874 39.043C17.6871 39.1432 17.5797 39.2077 17.4651 39.2363C17.3648 39.2793 17.2431 39.3008 17.0999 39.3008Z" fill="#F0D90B"/>
<path d="M40.3042 34.358C40.3042 35.634 40.8468 36.272 41.9322 36.272C43.1202 36.272 43.9195 35.8613 44.3302 35.04C44.4768 34.7467 44.5502 34.3727 44.5502 33.918C44.5502 33.4487 44.4402 33.016 44.2202 32.62C43.8535 31.9893 43.2228 31.2927 42.3282 30.53C40.8468 29.2687 40.1062 27.9633 40.1062 26.614C40.1062 25.25 40.5315 24.2013 41.3822 23.468C42.2328 22.7347 43.2082 22.368 44.3082 22.368C45.4082 22.368 46.2808 22.6467 46.9262 23.204C47.5715 23.7613 47.8942 24.5973 47.8942 25.712C47.8942 26.4453 47.6448 27.0833 47.1462 27.626C46.6622 28.1687 46.0168 28.506 45.2102 28.638C45.5768 28.946 45.9435 29.2613 46.3102 29.584C46.6622 29.9067 46.9848 30.2587 47.2782 30.64C47.9235 31.5053 48.2462 32.5393 48.2462 33.742C48.2462 34.578 48.0482 35.3333 47.6522 36.008C47.2708 36.6827 46.7648 37.2547 46.1342 37.724C45.5182 38.1787 44.8215 38.5307 44.0442 38.78C43.2668 39.0293 42.5408 39.154 41.8662 39.154C40.4288 39.154 39.3142 38.824 38.5222 38.164C37.5982 37.416 37.1362 36.338 37.1362 34.93C37.1362 34.006 37.4368 33.1113 38.0382 32.246C38.6395 31.3807 39.2775 30.948 39.9522 30.948C40.4802 30.948 40.7442 31.1093 40.7442 31.432C40.7442 31.9013 40.6708 32.3707 40.5242 32.84C40.3775 33.2947 40.3042 33.8007 40.3042 34.358ZM44.5722 28.11C45.4082 27.274 45.8262 26.4013 45.8262 25.492C45.8262 25.2133 45.6795 24.9787 45.3862 24.788C45.0635 24.612 44.7262 24.524 44.3742 24.524C43.5822 24.524 43.0102 24.7807 42.6582 25.294C42.8342 25.9247 43.0908 26.46 43.4282 26.9C43.7802 27.34 44.1615 27.7433 44.5722 28.11ZM51.2231 37.24L50.4971 36.184L54.7651 33.214L50.4531 30.2L51.2231 29.1L57.0751 33.17L51.2231 37.24Z" fill="white"/>
</svg>
